STARTFONT 2.1
FONT -FontForge-Comic Sans MS-Book-R-Normal-SansMS-16-150-75-75-P-90-ISO10646-1
SIZE 15 75 75
FONTBOUNDINGBOX 18 20 -2 -5
COMMENT "Generated by fontforge, http://fontforge.sourceforge.net"
COMMENT "(c) 2018 Microsoft Corporation. All Rights Reserved."
STARTPROPERTIES 39
FOUNDRY "FontForge"
FAMILY_NAME "Comic Sans MS"
WEIGHT_NAME "Book"
SLANT "R"
SETWIDTH_NAME "Normal"
ADD_STYLE_NAME "SansMS"
PIXEL_SIZE 16
POINT_SIZE 150
RESOLUTION_X 75
RESOLUTION_Y 75
SPACING "P"
AVERAGE_WIDTH 90
CHARSET_REGISTRY "ISO10646"
CHARSET_ENCODING "1"
FONTNAME_REGISTRY ""
CHARSET_COLLECTIONS "ISO10646-1"
FONT_NAME "ComicSansMS"
FACE_NAME "Comic Sans MS"
COPYRIGHT "(c) 2018 Microsoft Corporation. All Rights Reserved."
FONT_VERSION "5.14"
FONT_ASCENT 13
FONT_DESCENT 3
UNDERLINE_POSITION -3
UNDERLINE_THICKNESS 2
X_HEIGHT 7
CAP_HEIGHT 11
RAW_ASCENT 799
RAW_DESCENT 200
NORM_SPACE 5
RELATIVE_WEIGHT 40
RELATIVE_SETWIDTH 50
SUPERSCRIPT_X 0
SUPERSCRIPT_Y 7
SUPERSCRIPT_SIZE 10
SUBSCRIPT_X 0
SUBSCRIPT_Y 2
SUBSCRIPT_SIZE 10
AVG_LOWERCASE_WIDTH 81
AVG_UPPERCASE_WIDTH 113
ENDPROPERTIES
CHARS 126
STARTCHAR space
ENCODING 32
SWIDTH 298 0
DWIDTH 5 0
BBX 1 1 0 0
BITMAP
00
ENDCHAR
STARTCHAR exclam
ENCODING 33
SWIDTH 237 0
DWIDTH 4 0
BBX 2 14 1 -1
BITMAP
C0
C0
C0
C0
C0
C0
C0
C0
C0
C0
C0
00
C0
C0
ENDCHAR
STARTCHAR quotedbl
ENCODING 34
SWIDTH 424 0
DWIDTH 8 0
BBX 6 5 1 7
BITMAP
CC
CC
CC
CC
CC
ENDCHAR
STARTCHAR numbersign
ENCODING 35
SWIDTH 842 0
DWIDTH 13 0
BBX 13 12 0 0
BITMAP
0C60
0C60
7FF8
7FF8
18C0
19C0
3180
FFF0
FFF0
3380
6300
6300
ENDCHAR
STARTCHAR dollar
ENCODING 36
SWIDTH 693 0
DWIDTH 11 0
BBX 10 17 0 -3
BITMAP
0C00
0C00
1F00
7F80
EC00
CC00
CC00
FF00
3F80
0DC0
0CC0
CDC0
FF80
7F00
0C00
0C00
0C00
ENDCHAR
STARTCHAR percent
ENCODING 37
SWIDTH 820 0
DWIDTH 13 0
BBX 12 13 0 0
BITMAP
0080
7180
F900
DB00
FA00
7600
0400
0C00
08E0
19F0
11B0
31F0
20E0
ENDCHAR
STARTCHAR ampersand
ENCODING 38
SWIDTH 654 0
DWIDTH 10 0
BBX 11 12 0 0
BITMAP
0E00
1F00
1B00
1E00
1C00
3C40
6640
C3C0
C1C0
E180
7FC0
3E20
ENDCHAR
STARTCHAR quotesingle
ENCODING 39
SWIDTH 388 0
DWIDTH 6 0
BBX 2 5 2 7
BITMAP
C0
C0
C0
C0
C0
ENDCHAR
STARTCHAR parenleft
ENCODING 40
SWIDTH 366 0
DWIDTH 6 0
BBX 5 16 1 -3
BITMAP
18
38
30
60
60
C0
C0
C0
C0
C0
C0
C0
60
60
30
18
ENDCHAR
STARTCHAR parenright
ENCODING 41
SWIDTH 366 0
DWIDTH 6 0
BBX 5 16 0 -3
BITMAP
C0
E0
60
30
30
18
18
18
18
18
18
18
30
30
60
C0
ENDCHAR
STARTCHAR asterisk
ENCODING 42
SWIDTH 529 0
DWIDTH 9 0
BBX 7 6 1 6
BITMAP
10
FE
7E
38
6C
4C
ENDCHAR
STARTCHAR plus
ENCODING 43
SWIDTH 480 0
DWIDTH 8 0
BBX 8 8 0 1
BITMAP
18
18
18
FF
FF
18
18
18
ENDCHAR
STARTCHAR comma
ENCODING 44
SWIDTH 276 0
DWIDTH 4 0
BBX 2 3 1 -2
BITMAP
40
C0
80
ENDCHAR
STARTCHAR hyphen
ENCODING 45
SWIDTH 416 0
DWIDTH 7 0
BBX 5 2 1 4
BITMAP
F8
F8
ENDCHAR
STARTCHAR period
ENCODING 46
SWIDTH 249 0
DWIDTH 4 0
BBX 2 2 1 0
BITMAP
C0
C0
ENDCHAR
STARTCHAR slash
ENCODING 47
SWIDTH 511 0
DWIDTH 9 0
BBX 7 13 1 -1
BITMAP
06
06
06
0C
0C
18
18
30
30
60
60
C0
C0
ENDCHAR
STARTCHAR zero
ENCODING 48
SWIDTH 610 0
DWIDTH 10 0
BBX 9 12 0 0
BITMAP
1E00
7F00
6300
C180
C180
C180
C180
C180
C180
6300
7F00
3E00
ENDCHAR
STARTCHAR one
ENCODING 49
SWIDTH 450 0
DWIDTH 7 0
BBX 6 12 1 0
BITMAP
30
70
F0
B0
30
30
30
30
30
30
FC
FC
ENDCHAR
STARTCHAR two
ENCODING 50
SWIDTH 610 0
DWIDTH 10 0
BBX 8 12 1 0
BITMAP
3C
7F
E3
C3
03
0E
1C
70
E0
C0
FF
FF
ENDCHAR
STARTCHAR three
ENCODING 51
SWIDTH 610 0
DWIDTH 10 0
BBX 7 12 1 0
BITMAP
7C
FE
C6
06
0E
78
3E
06
06
86
FC
7C
ENDCHAR
STARTCHAR four
ENCODING 52
SWIDTH 610 0
DWIDTH 10 0
BBX 10 12 0 0
BITMAP
0300
0700
0F00
0B00
1300
3300
6300
FFC0
FFC0
0300
0300
0300
ENDCHAR
STARTCHAR five
ENCODING 53
SWIDTH 610 0
DWIDTH 10 0
BBX 8 12 1 0
BITMAP
FF
FF
C0
FC
FE
C7
C3
03
03
C7
FE
7C
ENDCHAR
STARTCHAR six
ENCODING 54
SWIDTH 610 0
DWIDTH 10 0
BBX 8 12 1 0
BITMAP
0C
1C
38
70
60
FE
FF
C3
C3
E7
7E
3C
ENDCHAR
STARTCHAR seven
ENCODING 55
SWIDTH 610 0
DWIDTH 10 0
BBX 9 12 1 0
BITMAP
FF80
FF80
0300
0600
0400
0C00
0C00
1800
1800
3000
3000
2000
ENDCHAR
STARTCHAR eight
ENCODING 56
SWIDTH 610 0
DWIDTH 10 0
BBX 8 12 1 0
BITMAP
3C
FE
C3
C3
FE
7E
E7
C3
C3
C3
FE
3C
ENDCHAR
STARTCHAR nine
ENCODING 57
SWIDTH 610 0
DWIDTH 10 0
BBX 8 13 1 -1
BITMAP
3C
7E
E7
C3
C3
E7
7F
3F
06
0E
1C
78
60
ENDCHAR
STARTCHAR colon
ENCODING 58
SWIDTH 298 0
DWIDTH 5 0
BBX 2 7 1 1
BITMAP
C0
C0
00
00
00
C0
C0
ENDCHAR
STARTCHAR semicolon
ENCODING 59
SWIDTH 298 0
DWIDTH 5 0
BBX 3 9 1 -1
BITMAP
60
60
00
00
00
00
60
C0
C0
ENDCHAR
STARTCHAR less
ENCODING 60
SWIDTH 381 0
DWIDTH 6 0
BBX 5 7 1 2
BITMAP
18
38
70
C0
60
30
18
ENDCHAR
STARTCHAR equal
ENCODING 61
SWIDTH 510 0
DWIDTH 8 0
BBX 6 7 1 2
BITMAP
FC
FC
00
00
00
FC
FC
ENDCHAR
STARTCHAR greater
ENCODING 62
SWIDTH 381 0
DWIDTH 7 0
BBX 5 7 1 2
BITMAP
C0
60
30
18
70
E0
80
ENDCHAR
STARTCHAR question
ENCODING 63
SWIDTH 523 0
DWIDTH 9 0
BBX 7 12 1 -1
BITMAP
78
FC
CE
06
06
06
0C
38
20
00
60
60
ENDCHAR
STARTCHAR at
ENCODING 64
SWIDTH 931 0
DWIDTH 15 0
BBX 13 15 1 -2
BITMAP
0F80
3FE0
3070
6030
6618
CC18
D918
DB18
DFF0
CCE0
E000
6000
30C0
3FC0
0F80
ENDCHAR
STARTCHAR A
ENCODING 65
SWIDTH 731 0
DWIDTH 12 0
BBX 10 12 1 0
BITMAP
0300
0300
0700
0D80
0D80
1980
3F80
3F80
61C0
60C0
C0C0
C0C0
ENDCHAR
STARTCHAR B
ENCODING 66
SWIDTH 630 0
DWIDTH 10 0
BBX 8 12 1 0
BITMAP
F8
FC
CE
C6
CE
FC
FE
C7
C3
C7
FE
F8
ENDCHAR
STARTCHAR C
ENCODING 67
SWIDTH 602 0
DWIDTH 10 0
BBX 8 12 0 0
BITMAP
0F
1F
33
60
60
C0
C0
C0
C1
E7
7E
3C
ENDCHAR
STARTCHAR D
ENCODING 68
SWIDTH 721 0
DWIDTH 12 0
BBX 10 12 1 0
BITMAP
C000
F800
FE00
C700
C180
C0C0
C0C0
C0C0
C0C0
C380
FF00
7E00
ENDCHAR
STARTCHAR E
ENCODING 69
SWIDTH 624 0
DWIDTH 10 0
BBX 7 12 1 0
BITMAP
FE
FE
C0
C0
C0
FE
FE
C0
C0
C0
FE
7E
ENDCHAR
STARTCHAR F
ENCODING 70
SWIDTH 606 0
DWIDTH 10 0
BBX 9 12 1 0
BITMAP
FF00
FF80
C000
C000
C000
FF00
FF00
C000
C000
C000
C000
C000
ENDCHAR
STARTCHAR G
ENCODING 71
SWIDTH 679 0
DWIDTH 11 0
BBX 10 12 0 0
BITMAP
0E00
1F80
3980
7000
6000
DFC0
DFC0
C0C0
C180
C380
7F00
3C00
ENDCHAR
STARTCHAR H
ENCODING 72
SWIDTH 768 0
DWIDTH 12 0
BBX 10 12 1 0
BITMAP
C0C0
C0C0
C0C0
C0C0
C0C0
CFC0
FFC0
F0C0
C0C0
C0C0
C0C0
C0C0
ENDCHAR
STARTCHAR I
ENCODING 73
SWIDTH 546 0
DWIDTH 9 0
BBX 8 12 0 0
BITMAP
FF
FF
18
18
18
18
18
18
18
18
FF
FF
ENDCHAR
STARTCHAR J
ENCODING 74
SWIDTH 665 0
DWIDTH 11 0
BBX 10 12 0 0
BITMAP
3FC0
3FC0
0600
0600
0600
0600
0600
C600
C600
E600
7E00
1C00
ENDCHAR
STARTCHAR K
ENCODING 75
SWIDTH 610 0
DWIDTH 10 0
BBX 8 12 1 0
BITMAP
C1
C3
C6
CC
D8
E0
E0
F0
D8
CC
C7
C3
ENDCHAR
STARTCHAR L
ENCODING 76
SWIDTH 550 0
DWIDTH 9 0
BBX 7 12 1 0
BITMAP
C0
C0
C0
C0
C0
C0
C0
C0
C0
C0
FE
FE
ENDCHAR
STARTCHAR M
ENCODING 77
SWIDTH 882 0
DWIDTH 15 0
BBX 13 12 1 0
BITMAP
1840
38E0
38E0
38E0
28A0
6DB0
6DB0
6DB0
4DB0
CF30
C718
C718
ENDCHAR
STARTCHAR N
ENCODING 78
SWIDTH 796 0
DWIDTH 13 0
BBX 11 12 1 0
BITMAP
C040
C060
E060
F060
D860
CC60
C460
C660
C360
C1E0
C0E0
C060
ENDCHAR
STARTCHAR O
ENCODING 79
SWIDTH 798 0
DWIDTH 13 0
BBX 11 12 1 0
BITMAP
0F80
3FC0
70E0
6060
E060
C060
C060
C0E0
C0C0
61C0
7F80
1E00
ENDCHAR
STARTCHAR P
ENCODING 80
SWIDTH 520 0
DWIDTH 8 0
BBX 7 12 1 0
BITMAP
F8
FC
CE
C6
CE
FC
F8
C0
C0
C0
C0
C0
ENDCHAR
STARTCHAR Q
ENCODING 81
SWIDTH 876 0
DWIDTH 14 0
BBX 13 15 0 -3
BITMAP
0FC0
3FE0
7870
6030
C018
C018
C018
C218
6318
71B0
3FF0
0F60
0030
0018
0008
ENDCHAR
STARTCHAR R
ENCODING 82
SWIDTH 628 0
DWIDTH 11 0
BBX 9 12 1 0
BITMAP
F000
FC00
CE00
C700
C300
C300
C600
FC00
FC00
CE00
C380
C180
ENDCHAR
STARTCHAR S
ENCODING 83
SWIDTH 693 0
DWIDTH 11 0
BBX 9 12 1 0
BITMAP
1E00
3F00
7000
6000
7E00
3F00
0380
0180
C180
C380
7F00
3C00
ENDCHAR
STARTCHAR T
ENCODING 84
SWIDTH 679 0
DWIDTH 11 0
BBX 10 12 0 0
BITMAP
FFC0
FFC0
0C00
0C00
0C00
0C00
0C00
0C00
0C00
0C00
0C00
0C00
ENDCHAR
STARTCHAR U
ENCODING 85
SWIDTH 736 0
DWIDTH 12 0
BBX 10 12 1 0
BITMAP
C0C0
C0C0
C0C0
C0C0
C0C0
C0C0
C0C0
C0C0
E180
6380
7F00
1E00
ENDCHAR
STARTCHAR V
ENCODING 86
SWIDTH 649 0
DWIDTH 10 0
BBX 9 12 1 0
BITMAP
C180
C180
C300
6300
6300
6300
6600
3600
3600
3600
1C00
1C00
ENDCHAR
STARTCHAR W
ENCODING 87
SWIDTH 1039 0
DWIDTH 17 0
BBX 15 12 1 0
BITMAP
C186
C386
C386
C286
66CC
66CC
66CC
6CD8
2CD8
38D8
38F0
3870
ENDCHAR
STARTCHAR X
ENCODING 88
SWIDTH 723 0
DWIDTH 12 0
BBX 10 12 1 0
BITMAP
C0C0
C0C0
6180
3300
1E00
0C00
0E00
1F00
3300
6180
C0C0
C0C0
ENDCHAR
STARTCHAR Y
ENCODING 89
SWIDTH 635 0
DWIDTH 11 0
BBX 9 12 1 0
BITMAP
C180
C180
6380
6300
3700
3600
1E00
1E00
0C00
1C00
1800
3000
ENDCHAR
STARTCHAR Z
ENCODING 90
SWIDTH 693 0
DWIDTH 12 0
BBX 10 12 1 0
BITMAP
FFC0
FFC0
0380
0700
0E00
1C00
1800
3000
6000
C000
FFC0
FFC0
ENDCHAR
STARTCHAR bracketleft
ENCODING 91
SWIDTH 376 0
DWIDTH 6 0
BBX 5 16 2 -3
BITMAP
F8
F8
C0
C0
C0
C0
C0
C0
C0
C0
C0
C0
C0
C0
F8
F8
ENDCHAR
STARTCHAR backslash
ENCODING 92
SWIDTH 549 0
DWIDTH 8 0
BBX 6 13 1 -1
BITMAP
C0
C0
60
60
20
30
30
10
18
18
18
0C
0C
ENDCHAR
STARTCHAR bracketright
ENCODING 93
SWIDTH 376 0
DWIDTH 6 0
BBX 5 16 0 -3
BITMAP
F8
F8
18
18
18
18
18
18
18
18
18
18
18
18
F8
F8
ENDCHAR
STARTCHAR asciicircum
ENCODING 94
SWIDTH 581 0
DWIDTH 8 0
BBX 6 4 1 9
BITMAP
30
78
6C
C4
ENDCHAR
STARTCHAR underscore
ENCODING 95
SWIDTH 626 0
DWIDTH 10 0
BBX 10 1 0 -3
BITMAP
FFC0
ENDCHAR
STARTCHAR grave
ENCODING 96
SWIDTH 556 0
DWIDTH 9 0
BBX 3 4 1 9
BITMAP
80
C0
60
20
ENDCHAR
STARTCHAR a
ENCODING 97
SWIDTH 511 0
DWIDTH 8 0
BBX 8 8 0 0
BITMAP
3E
7E
E6
C6
C6
C6
FE
7B
ENDCHAR
STARTCHAR b
ENCODING 98
SWIDTH 593 0
DWIDTH 10 0
BBX 8 13 1 0
BITMAP
C0
C0
C0
C0
C0
DC
FE
E7
C3
C3
C7
FE
FC
ENDCHAR
STARTCHAR c
ENCODING 99
SWIDTH 513 0
DWIDTH 8 0
BBX 7 8 0 0
BITMAP
3C
7E
62
C0
C0
C2
7E
3C
ENDCHAR
STARTCHAR d
ENCODING 100
SWIDTH 587 0
DWIDTH 9 0
BBX 8 13 0 0
BITMAP
03
03
03
03
03
3F
7F
E3
C3
C3
E3
7F
3F
ENDCHAR
STARTCHAR e
ENCODING 101
SWIDTH 547 0
DWIDTH 8 0
BBX 7 8 0 0
BITMAP
3C
7E
E6
CC
D8
E2
FE
3C
ENDCHAR
STARTCHAR f
ENCODING 102
SWIDTH 508 0
DWIDTH 8 0
BBX 7 13 1 0
BITMAP
0E
1E
38
30
30
FC
FC
30
30
30
30
30
30
ENDCHAR
STARTCHAR g
ENCODING 103
SWIDTH 530 0
DWIDTH 8 0
BBX 7 12 0 -4
BITMAP
3C
7E
E6
C6
C6
CE
FE
76
06
0C
FC
F8
ENDCHAR
STARTCHAR h
ENCODING 104
SWIDTH 577 0
DWIDTH 8 0
BBX 7 13 0 0
BITMAP
C0
C0
C0
C0
C0
DC
FE
E6
C6
C6
C6
C6
C6
ENDCHAR
STARTCHAR i
ENCODING 105
SWIDTH 280 0
DWIDTH 5 0
BBX 2 12 1 0
BITMAP
C0
C0
00
00
C0
C0
C0
C0
C0
C0
C0
C0
ENDCHAR
STARTCHAR j
ENCODING 106
SWIDTH 403 0
DWIDTH 6 0
BBX 6 17 -2 -5
BITMAP
0C
0C
00
00
0C
0C
0C
0C
0C
0C
0C
0C
0C
CC
CC
7C
38
ENDCHAR
STARTCHAR k
ENCODING 107
SWIDTH 540 0
DWIDTH 9 0
BBX 7 13 1 0
BITMAP
C0
C0
C0
C0
C0
C4
CC
D8
F8
F8
CC
C6
C6
ENDCHAR
STARTCHAR l
ENCODING 108
SWIDTH 273 0
DWIDTH 5 0
BBX 2 13 1 0
BITMAP
C0
C0
C0
C0
C0
C0
C0
C0
C0
C0
C0
C0
C0
ENDCHAR
STARTCHAR m
ENCODING 109
SWIDTH 776 0
DWIDTH 11 0
BBX 10 8 0 0
BITMAP
DD80
FFC0
EEC0
CCC0
CCC0
CCC0
CCC0
CCC0
ENDCHAR
STARTCHAR n
ENCODING 110
SWIDTH 523 0
DWIDTH 8 0
BBX 7 8 0 0
BITMAP
DC
FE
E6
C6
C6
C6
C6
C6
ENDCHAR
STARTCHAR o
ENCODING 111
SWIDTH 525 0
DWIDTH 8 0
BBX 7 8 0 0
BITMAP
38
7C
C6
C6
C6
C6
7C
38
ENDCHAR
STARTCHAR p
ENCODING 112
SWIDTH 534 0
DWIDTH 9 0
BBX 7 14 1 -5
BITMAP
C0
DC
FE
C6
C6
C6
C6
FC
F8
C0
C0
C0
C0
C0
ENDCHAR
STARTCHAR q
ENCODING 113
SWIDTH 520 0
DWIDTH 8 0
BBX 7 12 0 -4
BITMAP
3E
7E
E6
C6
C6
C6
7E
3E
06
06
06
06
ENDCHAR
STARTCHAR r
ENCODING 114
SWIDTH 480 0
DWIDTH 8 0
BBX 6 8 1 0
BITMAP
DC
EC
CC
C0
C0
C0
C0
C0
ENDCHAR
STARTCHAR s
ENCODING 115
SWIDTH 486 0
DWIDTH 7 0
BBX 6 8 0 0
BITMAP
1C
7C
E0
F8
7C
0C
FC
78
ENDCHAR
STARTCHAR t
ENCODING 116
SWIDTH 471 0
DWIDTH 7 0
BBX 6 11 0 0
BITMAP
30
30
30
FC
FC
30
30
30
30
30
30
ENDCHAR
STARTCHAR u
ENCODING 117
SWIDTH 520 0
DWIDTH 8 0
BBX 7 8 0 0
BITMAP
C6
C6
C6
C6
C6
C6
FE
7E
ENDCHAR
STARTCHAR v
ENCODING 118
SWIDTH 486 0
DWIDTH 8 0
BBX 7 8 0 0
BITMAP
C6
C6
6C
6C
6C
38
38
10
ENDCHAR
STARTCHAR w
ENCODING 119
SWIDTH 684 0
DWIDTH 11 0
BBX 10 8 0 0
BITMAP
CCC0
CCC0
CCC0
DEC0
DAC0
DAC0
7380
7380
ENDCHAR
STARTCHAR x
ENCODING 120
SWIDTH 590 0
DWIDTH 9 0
BBX 8 8 0 0
BITMAP
C3
E7
7E
3C
3C
7E
E7
C3
ENDCHAR
STARTCHAR y
ENCODING 121
SWIDTH 520 0
DWIDTH 9 0
BBX 8 13 0 -5
BITMAP
C3
E3
63
76
36
3C
1C
18
18
30
30
60
60
ENDCHAR
STARTCHAR z
ENCODING 122
SWIDTH 538 0
DWIDTH 9 0
BBX 7 8 1 0
BITMAP
FE
FE
0C
18
30
60
FE
FE
ENDCHAR
STARTCHAR braceleft
ENCODING 123
SWIDTH 366 0
DWIDTH 6 0
BBX 5 16 1 -3
BITMAP
38
78
60
60
60
60
60
E0
C0
60
60
60
60
60
38
38
ENDCHAR
STARTCHAR bar
ENCODING 124
SWIDTH 421 0
DWIDTH 7 0
BBX 2 16 3 -3
BITMAP
C0
C0
C0
C0
C0
C0
C0
C0
C0
C0
C0
C0
C0
C0
C0
C0
ENDCHAR
STARTCHAR braceright
ENCODING 125
SWIDTH 366 0
DWIDTH 6 0
BBX 6 16 0 -3
BITMAP
E0
F0
30
30
30
30
30
38
1C
38
30
30
30
30
E0
E0
ENDCHAR
STARTCHAR asciitilde
ENCODING 126
SWIDTH 597 0
DWIDTH 10 0
BBX 8 5 1 4
BITMAP
30
79
D9
CF
8E
ENDCHAR
STARTCHAR uni00A0
ENCODING 160
SWIDTH 298 0
DWIDTH 5 0
BBX 1 1 0 0
BITMAP
00
ENDCHAR
STARTCHAR exclamdown
ENCODING 161
SWIDTH 237 0
DWIDTH 4 0
BBX 2 13 1 -1
BITMAP
C0
C0
00
C0
C0
C0
C0
C0
C0
C0
C0
C0
C0
ENDCHAR
STARTCHAR cent
ENCODING 162
SWIDTH 623 0
DWIDTH 10 0
BBX 9 14 0 0
BITMAP
0C00
0C00
1E80
3F80
6D80
CC00
CC00
CC00
CC80
ED80
7F00
1E00
0C00
0C00
ENDCHAR
STARTCHAR sterling
ENCODING 163
SWIDTH 793 0
DWIDTH 13 0
BBX 11 15 1 -2
BITMAP
0F80
3FC0
30C0
7000
6000
6000
FF80
FF80
2000
3000
3000
3020
7C60
7FE0
03C0
ENDCHAR
STARTCHAR currency
ENCODING 164
SWIDTH 611 0
DWIDTH 10 0
BBX 10 11 1 1
BITMAP
C000
E0C0
7FC0
7F80
6300
6300
6300
7E00
FF00
C180
0180
ENDCHAR
STARTCHAR yen
ENCODING 165
SWIDTH 635 0
DWIDTH 10 0
BBX 8 12 1 0
BITMAP
C3
C3
66
66
E7
FF
18
7E
7E
18
18
18
ENDCHAR
STARTCHAR brokenbar
ENCODING 166
SWIDTH 404 0
DWIDTH 6 0
BBX 2 13 1 0
BITMAP
C0
C0
C0
C0
C0
00
00
C0
C0
C0
C0
C0
C0
ENDCHAR
STARTCHAR section
ENCODING 167
SWIDTH 634 0
DWIDTH 10 0
BBX 8 12 0 0
BITMAP
3E
7F
63
60
FC
C7
73
1E
83
C3
7F
3E
ENDCHAR
STARTCHAR dieresis
ENCODING 168
SWIDTH 556 0
DWIDTH 9 0
BBX 6 2 1 9
BITMAP
CC
CC
ENDCHAR
STARTCHAR copyright
ENCODING 169
SWIDTH 795 0
DWIDTH 13 0
BBX 11 13 1 0
BITMAP
0F00
3FC0
30C0
6660
CE60
D860
D860
D960
DFE0
EEC0
61C0
7F80
1E00
ENDCHAR
STARTCHAR ordfeminine
ENCODING 170
SWIDTH 526 0
DWIDTH 8 0
BBX 6 7 1 5
BITMAP
78
F8
D8
D8
EC
EC
4C
ENDCHAR
STARTCHAR guillemotleft
ENCODING 171
SWIDTH 577 0
DWIDTH 9 0
BBX 9 7 0 2
BITMAP
1980
3300
6600
CC00
6600
3300
1980
ENDCHAR
STARTCHAR logicalnot
ENCODING 172
SWIDTH 480 0
DWIDTH 9 0
BBX 7 4 1 2
BITMAP
FE
FE
06
06
ENDCHAR
STARTCHAR uni00AD
ENCODING 173
SWIDTH 416 0
DWIDTH 7 0
BBX 5 2 1 4
BITMAP
F8
F8
ENDCHAR
STARTCHAR registered
ENCODING 174
SWIDTH 795 0
DWIDTH 13 0
BBX 11 12 1 1
BITMAP
1F00
3F80
70C0
7EE0
D260
D260
DC60
DC60
DAC0
61C0
7F80
1E00
ENDCHAR
STARTCHAR macron
ENCODING 175
SWIDTH 626 0
DWIDTH 10 0
BBX 10 1 0 13
BITMAP
FFC0
ENDCHAR
STARTCHAR degree
ENCODING 176
SWIDTH 409 0
DWIDTH 7 0
BBX 6 6 0 8
BITMAP
78
FC
CC
CC
FC
78
ENDCHAR
STARTCHAR plusminus
ENCODING 177
SWIDTH 480 0
DWIDTH 8 0
BBX 8 11 0 -2
BITMAP
18
18
18
FF
FF
18
18
18
00
FF
FF
ENDCHAR
STARTCHAR uni00B2
ENCODING 178
SWIDTH 650 0
DWIDTH 10 0
BBX 4 7 3 7
BITMAP
60
F0
30
20
40
F0
F0
ENDCHAR
STARTCHAR uni00B3
ENCODING 179
SWIDTH 650 0
DWIDTH 10 0
BBX 5 7 2 7
BITMAP
F0
F8
18
30
18
F8
F0
ENDCHAR
STARTCHAR acute
ENCODING 180
SWIDTH 556 0
DWIDTH 8 0
BBX 4 4 1 9
BITMAP
30
60
C0
80
ENDCHAR
STARTCHAR mu
ENCODING 181
SWIDTH 520 0
DWIDTH 8 0
BBX 9 11 -1 -3
BITMAP
3180
3180
6100
6300
6300
6200
7E00
7E00
C000
8000
8000
ENDCHAR
STARTCHAR paragraph
ENCODING 182
SWIDTH 693 0
DWIDTH 11 0
BBX 9 13 1 -1
BITMAP
0780
3F80
6D80
CD80
CD80
CD80
DD80
FF00
7B00
1B00
1B00
3600
3600
ENDCHAR
STARTCHAR periodcentered
ENCODING 183
SWIDTH 249 0
DWIDTH 4 0
BBX 2 2 1 5
BITMAP
C0
C0
ENDCHAR
STARTCHAR cedilla
ENCODING 184
SWIDTH 556 0
DWIDTH 9 0
BBX 4 4 2 -3
BITMAP
60
30
30
F0
ENDCHAR
STARTCHAR uni00B9
ENCODING 185
SWIDTH 650 0
DWIDTH 10 0
BBX 4 7 4 7
BITMAP
60
E0
60
60
60
F0
F0
ENDCHAR
STARTCHAR ordmasculine
ENCODING 186
SWIDTH 449 0
DWIDTH 8 0
BBX 6 7 1 7
BITMAP
30
78
CC
CC
CC
7C
78
ENDCHAR
STARTCHAR guillemotright
ENCODING 187
SWIDTH 577 0
DWIDTH 9 0
BBX 9 7 -1 2
BITMAP
CC00
6600
3300
1980
3300
6600
CC00
ENDCHAR
STARTCHAR onequarter
ENCODING 188
SWIDTH 650 0
DWIDTH 10 0
BBX 8 18 1 -3
BITMAP
18
38
18
18
18
3C
3C
00
FF
FF
00
18
18
38
58
FC
18
18
ENDCHAR
STARTCHAR onehalf
ENCODING 189
SWIDTH 650 0
DWIDTH 10 0
BBX 8 18 1 -3
BITMAP
18
38
18
18
18
3C
3C
00
FF
FF
00
1C
3E
26
04
18
3E
3E
ENDCHAR
STARTCHAR threequarters
ENCODING 190
SWIDTH 650 0
DWIDTH 10 0
BBX 8 18 1 -3
BITMAP
78
7C
0C
3C
0C
7C
78
00
FF
FF
00
18
18
38
58
FC
18
18
ENDCHAR
ENDFONT
